<svg id="Logo" xmlns="http://www.w3.org/2000/svg" viewBox="0 0 116 145"><defs><style>.cls-1{fill:#fff;}</style></defs><title>Typefi_roundel_logo_V</title><g id="roundel"><circle cx="58" cy="58" r="58"/><path class="cls-1" d="M112.13,68.65a3.58,3.58,0,0,0-3.74,2.88H90.74a3.86,3.86,0,0,0-7.48,0H65.61a3.58,3.58,0,0,0-3.74-2.88,3.86,3.86,0,1,0,0,7.73,3.61,3.61,0,0,0,3.74-2.91H83.26A3.49,3.49,0,0,0,86,76.25v36a3.87,3.87,0,1,0,1.93,0v-36a3.49,3.49,0,0,0,2.78-2.79h17.65a3.61,3.61,0,0,0,3.74,2.92A3.87,3.87,0,0,0,112.13,68.65Z" transform="translate(-29 -29.04)"/></g><g id="typefi"><polygon points="26.23 134.98 26.23 145 24.5 145 24.5 134.98 20.69 134.98 20.69 133.4 30.03 133.4 30.03 134.98 26.23 134.98"/><polygon points="40.1 140.28 40.1 145 38.38 145 38.38 140.28 34.53 133.4 36.52 133.4 39.03 138.1 39.3 138.7 39.58 138.1 42.27 133.4 44.15 133.4 40.1 140.28"/><path d="M82.58,169.68H81.11V174H79.38v-11.6h3.26c2.84,0,4.19,1.42,4.19,3.55s-1.57,3.7-4.24,3.7m-1.48-1.48h1.48A2.11,2.11,0,0,0,85,166c0-1.38-.84-2.09-2.6-2.09H81.11v4.3Z" transform="translate(-29 -29.04)"/><polygon points="64.57 145 64.57 133.4 71.63 133.4 71.63 134.98 66.3 134.98 66.3 138.35 71.08 138.35 71.08 139.94 66.3 139.94 66.3 143.41 71.83 143.41 71.83 145 64.57 145"/><polygon points="79.48 145 79.48 133.4 86.62 133.4 86.62 134.98 81.21 134.98 81.21 138.44 86.08 138.44 86.08 140.03 81.21 140.03 81.21 145 79.48 145"/><rect x="93.58" y="133.4" width="1.73" height="11.6"/><path d="M129.89,163.19a1.72,1.72,0,1,1,1.71-1.73A1.73,1.73,0,0,1,129.89,163.19Zm0-3.26a1.54,1.54,0,1,0,1.49,1.54A1.5,1.5,0,0,0,129.89,159.92Zm0.47,2.51-0.61-.83h-0.3v0.83h-0.2V160.5h0.59c0.49,0,.72.18,0.72,0.52a0.59,0.59,0,0,1-.55.57l0.63,0.85h-0.27Zm-0.58-1.76h-0.34v0.76h0.38a0.41,0.41,0,0,0,.51-0.41C130.34,160.73,130,160.68,129.78,160.68Z" transform="translate(-29 -29.04)"/></g></svg>